<svg xmlns="http://www.w3.org/2000/svg" viewBox="0 0 540 540">
  <g transform="translate(-117.143 -146.648)">
    <circle cx="387.143" cy="416.648" r="270" fill="#662d91"/>
    <path fill="#fff" d="M603.749 473.361h14.08v15.137h-14.08V473.36zm-28.982-28.67h14.002v43.025q0 8.8-4.224 13.415-4.224 4.655-12.242 4.655h-6.923v-9.192h2.425q3.99 0 5.475-1.8 1.487-1.798 1.487-7.078v-43.024zm0-17.052h14.002v11.42h-14.002v-11.42zm-34.498 41.146q-4.38 0-6.61 1.486-2.19 1.487-2.19 4.38 0 2.66 1.76 4.186 1.8 1.486 4.967 1.486 3.95 0 6.65-2.816 2.698-2.855 2.698-7.118v-1.604h-7.275zm21.395-5.28v24.993h-14.12v-6.493q-2.816 3.99-6.336 5.828-3.52 1.799-8.566 1.799-6.805 0-11.069-3.95-4.224-3.99-4.224-10.326 0-7.705 5.28-11.304 5.32-3.598 16.662-3.598h8.253v-1.095q0-3.325-2.62-4.85-2.62-1.565-8.175-1.565-4.498 0-8.37.9-3.872.9-7.197 2.699v-10.678q4.498-1.095 9.035-1.643 4.537-.586 9.074-.586 11.852 0 17.093 4.693 5.28 4.654 5.28 15.176zm-94.379-35.866h14.003v33.128l16.114-16.075h16.27l-21.394 20.104 23.077 23.702H498.38l-17.092-18.266v18.266h-14.003v-60.86zm-10.56 38.838v3.99h-32.737q.508 4.928 3.559 7.392 3.05 2.464 8.526 2.464 4.42 0 9.035-1.29 4.655-1.33 9.544-3.99v10.795q-4.967 1.878-9.935 2.816-4.967.978-9.934.978-11.89 0-18.5-6.023-6.572-6.063-6.572-16.975 0-10.717 6.454-16.858 6.493-6.14 17.835-6.14 10.326 0 16.506 6.218 6.219 6.22 6.219 16.623zm-14.394-4.654q0-3.99-2.346-6.415-2.308-2.464-6.063-2.464-4.068 0-6.61 2.308-2.542 2.269-3.168 6.57h18.187zm-78.108-17.131h38.213v9.778l-23.076 24.015h23.076v10.013h-39.19v-9.778l23.076-24.016h-22.099v-10.012zm-10.012 1.369v11.42q-2.856-1.955-5.75-2.894-2.855-.939-5.945-.939-5.867 0-9.152 3.442-3.247 3.403-3.247 9.544 0 6.14 3.247 9.582 3.285 3.403 9.152 3.403 3.285 0 6.219-.978 2.972-.977 5.476-2.894v11.46q-3.286 1.213-6.689 1.8-3.363.625-6.766.625-11.851 0-18.54-6.062-6.688-6.102-6.688-16.936t6.689-16.897q6.688-6.101 18.539-6.101 3.442 0 6.766.625 3.364.587 6.689 1.8zm-69.62 7.587q-4.655 0-7.12 3.364-2.424 3.325-2.424 9.622t2.425 9.66q2.464 3.325 7.118 3.325 4.576 0 7.001-3.324 2.425-3.364 2.425-9.661t-2.425-9.622q-2.425-3.364-7-3.364zm0-10.012q11.303 0 17.639 6.101 6.375 6.102 6.375 16.897 0 10.795-6.375 16.896-6.336 6.102-17.64 6.102-11.342 0-17.757-6.102-6.375-6.101-6.375-16.896 0-10.795 6.375-16.897 6.415-6.101 17.757-6.101zm-64.263 38.526v22.998h-14.002v-60.468h14.002v6.414q2.895-3.833 6.415-5.632 3.52-1.838 8.096-1.838 8.096 0 13.298 6.453 5.202 6.415 5.202 16.545 0 10.13-5.202 16.584-5.202 6.414-13.298 6.414-4.576 0-8.096-1.8-3.52-1.837-6.415-5.67zm9.309-28.357q-4.498 0-6.923 3.324-2.386 3.286-2.386 9.505 0 6.219 2.386 9.543 2.425 3.286 6.923 3.286t6.845-3.286q2.386-3.285 2.386-9.543 0-6.258-2.386-9.544-2.347-3.285-6.845-3.285zm-78.695-9.113h14.003v43.806h-14.003v-43.806zm0-17.053h14.003v11.42h-14.003v-11.42zm453.98-39.27h5.515q-1.956 2.621-2.699 4.03-.743 1.446-.743 2.463 0 1.526 1.134 2.464 1.173.978 3.09.978 1.525 0 3.012-.313 1.525-.274 3.09-.9v6.102q-2.152.43-3.99.626-1.838.235-3.442.235-4.498 0-6.923-1.8-2.386-1.799-2.386-5.162 0-2.073 1.056-4.225 1.056-2.112 3.286-4.498zm16.78-22.02v3.99h-32.738q.508 4.928 3.56 7.392 3.05 2.464 8.526 2.464 4.42 0 9.035-1.29 4.654-1.33 9.543-3.99v10.795q-4.967 1.877-9.934 2.816-4.968.978-9.935.978-11.89 0-18.5-6.024-6.571-6.062-6.571-16.974 0-10.717 6.453-16.858 6.493-6.14 17.836-6.14 10.325 0 16.505 6.218 6.22 6.22 6.22 16.623zm-14.394-4.654q0-3.99-2.347-6.415-2.308-2.464-6.062-2.464-4.068 0-6.61 2.308-2.543 2.268-3.169 6.57h18.188zm-56.87-17.132h14.002v43.806h-14.002v-43.806zm0-17.053h14.002v11.421h-14.002v-11.42zm-13.494 18.422v10.639q-4.498-1.877-8.683-2.816-4.185-.939-7.9-.939-3.99 0-5.946 1.017-1.916.978-1.916 3.05 0 1.683 1.447 2.582 1.486.9 5.28 1.33l2.464.352q10.756 1.37 14.472 4.498 3.716 3.13 3.716 9.817 0 7.001-5.163 10.522-5.163 3.52-15.41 3.52-4.342 0-8.997-.704-4.615-.665-9.504-2.034v-10.639q4.185 2.034 8.566 3.051 4.42 1.017 8.957 1.017 4.106 0 6.18-1.134 2.072-1.135 2.072-3.364 0-1.877-1.447-2.777-1.408-.939-5.671-1.447l-2.464-.313q-9.348-1.173-13.103-4.342-3.755-3.168-3.755-9.621 0-6.962 4.772-10.326 4.772-3.364 14.628-3.364 3.872 0 8.135.587 4.264.587 9.27 1.838zm-99.111-18.422h14.002v11.421h-14.002v-11.42zm-11.734 17.053h38.213v9.779l-23.076 24.015h23.076v10.012h-39.19v-9.778l23.076-24.015h-22.099v-10.013zM400.91 388.37h5.515q-1.955 2.621-2.698 4.03-.744 1.446-.744 2.463 0 1.526 1.135 2.464 1.173.978 3.09.978 1.525 0 3.011-.313 1.526-.274 3.09-.9v6.102q-2.151.43-3.99.626-1.838.235-3.441.235-4.498 0-6.923-1.8-2.386-1.799-2.386-5.162 0-2.073 1.056-4.225 1.056-2.112 3.285-4.498zm16.78-22.02v3.99h-32.737q.508 4.928 3.559 7.392 3.05 2.464 8.526 2.464 4.42 0 9.035-1.29 4.655-1.33 9.544-3.99v10.795q-4.967 1.877-9.935 2.816-4.967.978-9.934.978-11.89 0-18.5-6.024-6.572-6.062-6.572-16.974 0-10.717 6.454-16.858 6.493-6.14 17.835-6.14 10.326 0 16.506 6.218 6.219 6.22 6.219 16.623zm-14.394-4.654q0-3.99-2.346-6.415-2.308-2.464-6.063-2.464-4.068 0-6.61 2.308-2.542 2.268-3.168 6.57h18.187zm-36.374-5.202q-1.839-.86-3.677-1.252-1.8-.43-3.637-.43-5.398 0-8.331 3.48-2.895 3.443-2.895 9.896v20.182H334.38v-43.806h14.002v7.197q2.699-4.302 6.18-6.258 3.52-1.995 8.41-1.995.703 0 1.525.079.821.039 2.386.234l.039 12.673zm-75.957 25.54v22.998h-14.002v-60.468h14.002v6.415q2.894-3.833 6.414-5.632 3.52-1.839 8.097-1.839 8.096 0 13.298 6.454 5.202 6.414 5.202 16.545 0 10.13-5.202 16.583-5.202 6.415-13.298 6.415-4.576 0-8.097-1.8-3.52-1.838-6.414-5.67zm9.309-28.356q-4.498 0-6.923 3.324-2.386 3.286-2.386 9.505 0 6.218 2.386 9.543 2.425 3.285 6.923 3.285t6.844-3.285q2.386-3.285 2.386-9.543 0-6.258-2.386-9.544-2.346-3.285-6.844-3.285zm-50.925-2.7V327.51h14.08v60.86h-14.08v-6.337q-2.894 3.872-6.375 5.672-3.481 1.799-8.057 1.799-8.097 0-13.299-6.415-5.202-6.453-5.202-16.583 0-10.13 5.202-16.545 5.202-6.454 13.299-6.454 4.537 0 8.018 1.839 3.52 1.799 6.414 5.632zm-9.23 28.357q4.498 0 6.844-3.285 2.386-3.285 2.386-9.543 0-6.258-2.386-9.544-2.346-3.285-6.844-3.285-4.46 0-6.845 3.285-2.347 3.286-2.347 9.544 0 6.258 2.347 9.543 2.386 3.285 6.845 3.285zm-61.329-39.503q-6.884 0-10.678 5.084-3.794 5.085-3.794 14.316 0 9.191 3.794 14.276 3.794 5.084 10.678 5.084 6.923 0 10.717-5.084 3.794-5.085 3.794-14.276 0-9.231-3.794-14.316-3.794-5.084-10.717-5.084zm0-10.913q14.08 0 22.06 8.058 7.978 8.057 7.978 22.255 0 14.158-7.978 22.216-7.98 8.057-22.06 8.057-14.041 0-22.06-8.057-7.978-8.058-7.978-22.216 0-14.198 7.978-22.255 8.019-8.058 22.06-8.058z" font-family="sans-serif" font-size="63.571" font-weight="700" letter-spacing="0" style="line-height:125%;-inkscape-font-specification:'sans-serif, Bold';text-align:center" text-anchor="middle" word-spacing="0"/>
  </g>
</svg>